<svg width="63" height="63" viewBox="0 0 63 63" fill="none" xmlns="http://www.w3.org/2000/svg">
<path d="M63 31.5C63 25.2699 61.1526 19.1797 57.6913 13.9995C54.23 8.81939 49.3104 4.78196 43.5545 2.39779C37.7987 0.0136343 31.4651 -0.610171 25.3547 0.605264C19.2443 1.8207 13.6315 4.82078 9.22614 9.22614L31.5 31.5H63Z" fill="#EE4266"/>
<path d="M9.22614 9.22614C6.30109 12.1512 3.98082 15.6237 2.39779 19.4455C0.81477 23.2672 -6.24615e-07 27.3634 0 31.5L31.5 31.5L9.22614 9.22614Z" fill="#FF8FA7"/>
<path d="M0 31.5C-3.61636e-07 35.6366 0.814771 39.7328 2.39779 43.5545C3.98082 47.3763 6.30109 50.8488 9.22614 53.7739C12.1512 56.6989 15.6237 59.0192 19.4455 60.6022C23.2672 62.1852 27.3634 63 31.5 63L31.5 31.5L0 31.5Z" fill="#DC607A"/>
<path d="M31.5 63C35.6366 63 39.7328 62.1852 43.5545 60.6022C47.3763 59.0192 50.8488 56.6989 53.7739 53.7739C56.6989 50.8488 59.0192 47.3763 60.6022 43.5545C62.1852 39.7328 63 35.6366 63 31.5L31.5 31.5L31.5 63Z" fill="#DD4162"/>
</svg>
